<?xml version="1.0" encoding="utf-8"?>
<!-- Generator: Adobe Illustrator 23.0.1, SVG Export Plug-In . SVG Version: 6.00 Build 0)  -->
<svg version="1.1" id="Layer_1" xmlns="http://www.w3.org/2000/svg" xmlns:xlink="http://www.w3.org/1999/xlink" x="0px" y="0px"
	 viewBox="0 0 612 792" style="enable-background:new 0 0 612 792;" xml:space="preserve">
<style type="text/css">
	.st0{clip-path:url(#SVGID_2_);fill:#FFFFFF;}
	.st1{fill:none;stroke:#000000;stroke-linecap:round;stroke-linejoin:round;stroke-miterlimit:10;}
	.st2{fill:none;stroke:#8F8F8F;stroke-linecap:round;stroke-linejoin:round;stroke-miterlimit:10;stroke-dasharray:4,4;}
	.st3{fill:#8F8F8F;}
	.st4{fill:none;stroke:#8F8F8F;stroke-miterlimit:10;}
	.st5{fill:#F6EBEB;}
	.st6{font-family:'Inconsolata';}
	.st7{font-size:12px;}
	.st8{font-family:'BryantPro-Bold';}
	.st9{font-size:16px;}
	.st10{fill:none;stroke:#8F8F8F;stroke-linecap:round;stroke-linejoin:round;stroke-miterlimit:10;}
	.st11{fill:#5C7492;}
	.st12{fill:#FFFFFF;}
	.st13{font-family:'BryantPro-Medium';}
	.st14{fill:#934B48;}
</style>
<g>
	<g>
		<defs>
			<rect id="SVGID_1_" x="90" y="315" width="432" height="162"/>
		</defs>
		<clipPath id="SVGID_2_">
			<use xlink:href="#SVGID_1_"  style="overflow:visible;"/>
		</clipPath>
		<path class="st0" d="M89.5,314.5h432v162h-432V314.5z M89.5,314.5"/>
	</g>
	<line class="st1" x1="319" y1="335.25" x2="319" y2="470.5"/>
	<line class="st2" x1="263.5" y1="380.5" x2="337.1" y2="380.5"/>
	<path class="st3" d="M345.1,380.5l-8-3v6L345.1,380.5z M345.1,380.5"/>
	<path class="st4" d="M345.1,380.5l-8-3v6L345.1,380.5z M345.1,380.5"/>
	<line class="st2" x1="263.5" y1="407.5" x2="337.1" y2="407.5"/>
	<path class="st3" d="M345.1,407.5l-8-3v6L345.1,407.5z M345.1,407.5"/>
	<path class="st4" d="M345.1,407.5l-8-3v6L345.1,407.5z M345.1,407.5"/>
	<line class="st2" x1="301.87" y1="460.5" x2="337.1" y2="460.5"/>
	<path class="st3" d="M345.1,460.5l-8-3v6L345.1,460.5z M345.1,460.5"/>
	<path class="st4" d="M345.1,460.5l-8-3v6L345.1,460.5z M345.1,460.5"/>
	<path class="st5" d="M369,451h114.16c5.25,0,9.5,4.25,9.5,9.5l0,0c0,5.25-4.25,9.5-9.5,9.5H369c-5.25,0-9.5-4.25-9.5-9.5l0,0l0,0
		C359.5,455.25,363.75,451,369,451L369,451z M369,451"/>
	<text transform="matrix(1 0 0 1 387.5781 464.5)" class="st6 st7">blob : a0a60a</text>
	<text transform="matrix(1 0 0 1 131.9141 332)" class="st8 st9">W</text>
	<text transform="matrix(1 0 0 1 146.4531 332)" class="st8 st9">orking Direc</text>
	<text transform="matrix(1 0 0 1 233.2578 332)" class="st8 st9">to</text>
	<text transform="matrix(1 0 0 1 247.8047 332)" class="st8 st9">ry</text>
	<text transform="matrix(1 0 0 1 376.7656 332)" class="st8 st9">Git Direc</text>
	<text transform="matrix(1 0 0 1 440.3984 332)" class="st8 st9">to</text>
	<text transform="matrix(1 0 0 1 454.9453 332)" class="st8 st9">ry</text>
	<path class="st5" d="M369,396.5h114.16c5.25,0,9.5,4.25,9.5,9.5l0,0c0,5.25-4.25,9.5-9.5,9.5H369c-5.25,0-9.5-4.25-9.5-9.5l0,0l0,0
		C359.5,400.75,363.75,396.5,369,396.5L369,396.5z M369,396.5"/>
	<text transform="matrix(1 0 0 1 387.5781 410)" class="st6 st7">blob : a906cb</text>
	<path class="st5" d="M369,369.5h114.16c5.25,0,9.5,4.25,9.5,9.5l0,0c0,5.25-4.25,9.5-9.5,9.5H369c-5.25,0-9.5-4.25-9.5-9.5l0,0l0,0
		C359.5,373.75,363.75,369.5,369,369.5L369,369.5z M369,369.5"/>
	<text transform="matrix(1 0 0 1 387.5781 383)" class="st6 st7">blob : a874b7</text>
	<polyline class="st10" points="108,352.5 108.08,379.5 116.1,379.5 	"/>
	<path class="st3" d="M124.1,379.5l-8-3v6L124.1,379.5z M124.1,379.5"/>
	<path class="st4" d="M124.1,379.5l-8-3v6L124.1,379.5z M124.1,379.5"/>
	<path class="st11" d="M103.5,343h116c2.76,0,5,2.24,5,5v9c0,2.76-2.24,5-5,5h-116c-2.76,0-5-2.24-5-5l0,0v-9
		C98.5,345.24,100.74,343,103.5,343L103.5,343z M103.5,343"/>
	<text transform="matrix(1 0 0 1 157.8047 355)" class="st12 st13 st7">./</text>
	<path class="st14" d="M139.5,370h116c2.76,0,5,2.24,5,5v9c0,2.76-2.24,5-5,5h-116c-2.76,0-5-2.24-5-5l0,0v-9
		C134.5,372.24,136.74,370,139.5,370L139.5,370z M139.5,370"/>
	<text transform="matrix(1 0 0 1 176.3828 382)" class="st12 st13 st7">Rakeﬁle</text>
	<path class="st14" d="M139.5,397h116c2.76,0,5,2.24,5,5v9c0,2.76-2.24,5-5,5h-116c-2.76,0-5-2.24-5-5l0,0v-9
		C134.5,399.24,136.74,397,139.5,397L139.5,397z M139.5,397"/>
	<text transform="matrix(1 0 0 1 172.8594 409)" class="st12 st13 st7">README</text>
	<path class="st11" d="M139.5,424h116c2.76,0,5,2.24,5,5v9c0,2.76-2.24,5-5,5h-116c-2.76,0-5-2.24-5-5l0,0v-9
		C134.5,426.24,136.74,424,139.5,424L139.5,424z M139.5,424"/>
	<text transform="matrix(1 0 0 1 189.0234 436)" class="st12 st13 st7">lib</text>
	<text transform="matrix(1 0 0 1 201.7109 436)" class="st12 st13 st7">/</text>
	<path class="st14" d="M175.5,451h116c2.76,0,5,2.24,5,5v9c0,2.76-2.24,5-5,5h-116c-2.76,0-5-2.24-5-5l0,0v-9
		C170.5,453.24,172.74,451,175.5,451L175.5,451z M175.5,451"/>
	<text transform="matrix(1 0 0 1 202.5234 463)" class="st12 st13 st7">simplegit</text>
	<text transform="matrix(1 0 0 1 251.1875 463)" class="st12 st13 st7">.rb</text>
	<polyline class="st10" points="108,424.5 108.08,460.5 152.1,460.5 	"/>
	<path class="st3" d="M160.1,460.5l-8-3v6L160.1,460.5z M160.1,460.5"/>
	<path class="st4" d="M160.1,460.5l-8-3v6L160.1,460.5z M160.1,460.5"/>
	<polyline class="st10" points="108,397.5 108.08,433.5 116.1,433.5 	"/>
	<path class="st3" d="M124.1,433.5l-8-3v6L124.1,433.5z M124.1,433.5"/>
	<path class="st4" d="M124.1,433.5l-8-3v6L124.1,433.5z M124.1,433.5"/>
	<polyline class="st10" points="108,370.5 108.08,406.5 116.1,406.5 	"/>
	<path class="st3" d="M124.1,406.5l-8-3v6L124.1,406.5z M124.1,406.5"/>
	<path class="st4" d="M124.1,406.5l-8-3v6L124.1,406.5z M124.1,406.5"/>
</g>
</svg>
