<?xml version="1.0" encoding="utf-8"?>
<!-- Generator: Adobe Illustrator 23.0.1, SVG Export Plug-In . SVG Version: 6.00 Build 0)  -->
<svg version="1.1" id="Layer_1" xmlns="http://www.w3.org/2000/svg" xmlns:xlink="http://www.w3.org/1999/xlink" x="0px" y="0px"
	 viewBox="0 0 612 792" style="enable-background:new 0 0 612 792;" xml:space="preserve">
<style type="text/css">
	.st0{clip-path:url(#SVGID_2_);fill:#FFFFFF;}
	.st1{fill:#DAF5DD;}
	.st2{font-family:'Inconsolata';}
	.st3{font-size:10px;}
	.st4{fill:#F6F4DE;}
	.st5{fill:#E6EDF6;}
	.st6{fill:none;stroke:#000000;stroke-linecap:round;stroke-linejoin:round;stroke-miterlimit:10;}
	.st7{fill:none;stroke:#000000;stroke-miterlimit:10;}
	.st8{fill:#F6EBEB;}
	.st9{fill:#FCFFFD;}
	.st10{fill:none;stroke:#747474;stroke-width:3;stroke-linecap:round;stroke-linejoin:round;stroke-miterlimit:10;}
	
		.st11{clip-path:url(#SVGID_4_);fill:none;stroke:#747474;stroke-width:3;stroke-linecap:round;stroke-linejoin:round;stroke-miterlimit:10;}
</style>
<g>
	<g>
		<defs>
			<rect id="SVGID_1_" x="162" y="261" width="288" height="270"/>
		</defs>
		<clipPath id="SVGID_2_">
			<use xlink:href="#SVGID_1_"  style="overflow:visible;"/>
		</clipPath>
		<path class="st0" d="M161.5,260.5h288v270h-288V260.5z M161.5,260.5"/>
	</g>
	<path class="st1" d="M294.36,343.74h43.75c5.18,0,9.38,3.81,9.38,8.5c0,4.69-4.2,8.5-9.38,8.5h-43.75c-5.18,0-9.37-3.81-9.37-8.5
		C284.98,347.55,289.18,343.74,294.36,343.74"/>
	<text transform="matrix(1 0 0 1 301.7344 355.2422)" class="st2 st3">commit</text>
	<path class="st4" d="M300.92,305.74h30.63c3.62,0,6.56,3.81,6.56,8.5c0,4.69-2.94,8.5-6.56,8.5h-30.63c-3.62,0-6.56-3.81-6.56-8.5
		C294.36,309.55,297.3,305.74,300.92,305.74"/>
	<text transform="matrix(1 0 0 1 309.2344 317.2422)" class="st2 st3">tag</text>
	<path class="st5" d="M298.73,380.74h35c4.14,0,7.5,3.81,7.5,8.5s-3.36,8.5-7.5,8.5h-35c-4.14,0-7.5-3.81-7.5-8.5
		S294.59,380.74,298.73,380.74"/>
	<text transform="matrix(1 0 0 1 306.7344 392.2422)" class="st2 st3">tree</text>
	<line class="st6" x1="316.73" y1="361.24" x2="316.73" y2="371.34"/>
	<path d="M316.73,379.34l3-8h-6L316.73,379.34z M316.73,379.34"/>
	<path class="st7" d="M316.73,379.34l3-8h-6L316.73,379.34z M316.73,379.34"/>
	<line class="st6" x1="316.73" y1="323.24" x2="316.73" y2="334.34"/>
	<path d="M316.73,342.34l3-8h-6L316.73,342.34z M316.73,342.34"/>
	<path class="st7" d="M316.73,342.34l3-8h-6L316.73,342.34z M316.73,342.34"/>
	<line class="st6" x1="316.73" y1="398.24" x2="316.73" y2="413.1"/>
	<path d="M316.73,421.1l3-8h-6L316.73,421.1z M316.73,421.1"/>
	<path class="st7" d="M316.73,421.1l3-8h-6L316.73,421.1z M316.73,421.1"/>
	<line class="st6" x1="316.73" y1="440" x2="316.73" y2="455.6"/>
	<path d="M316.73,463.6l3-8h-6L316.73,463.6z M316.73,463.6"/>
	<path class="st7" d="M316.73,463.6l3-8h-6L316.73,463.6z M316.73,463.6"/>
	<path class="st8" d="M298.73,506h35c4.14,0,7.5,3.81,7.5,8.5c0,4.69-3.36,8.5-7.5,8.5h-35c-4.14,0-7.5-3.81-7.5-8.5
		C291.23,509.81,294.59,506,298.73,506"/>
	<text transform="matrix(1 0 0 1 306.7344 517.5078)" class="st2 st3">blob</text>
	<path class="st5" d="M298.73,465h35c4.14,0,7.5,3.81,7.5,8.5c0,4.69-3.36,8.5-7.5,8.5h-35c-4.14,0-7.5-3.81-7.5-8.5
		C291.23,468.8,294.59,465,298.73,465"/>
	<text transform="matrix(1 0 0 1 306.7344 476.4922)" class="st2 st3">tree</text>
	<path class="st5" d="M298.73,422.5h35c4.14,0,7.5,3.81,7.5,8.5c0,4.69-3.36,8.5-7.5,8.5h-35c-4.14,0-7.5-3.81-7.5-8.5
		C291.23,426.3,294.59,422.5,298.73,422.5"/>
	<text transform="matrix(1 0 0 1 306.7344 433.9922)" class="st2 st3">tree</text>
	<path class="st1" d="M204.29,343.74h43.75c5.18,0,9.38,3.81,9.38,8.5c0,4.69-4.2,8.5-9.38,8.5h-43.75c-5.17,0-9.38-3.81-9.38-8.5
		C194.92,347.55,199.12,343.74,204.29,343.74"/>
	<text transform="matrix(1 0 0 1 211.6719 355.2422)" class="st2 st3">commit</text>
	<path class="st5" d="M205.88,380.74h35c4.14,0,7.5,3.81,7.5,8.5s-3.36,8.5-7.5,8.5h-35c-4.14,0-7.5-3.81-7.5-8.5
		S201.74,380.74,205.88,380.74"/>
	<text transform="matrix(1 0 0 1 213.8828 392.2422)" class="st2 st3">tree</text>
	<line class="st6" x1="226.03" y1="361.24" x2="225.27" y2="371.37"/>
	<path d="M224.67,379.35l3.59-7.75l-5.98-0.45L224.67,379.35z M224.67,379.35"/>
	<path class="st7" d="M224.67,379.35l3.59-7.75l-5.98-0.45L224.67,379.35z M224.67,379.35"/>
	<line class="st6" x1="231.01" y1="398.24" x2="245.41" y2="415.41"/>
	<path d="M250.55,421.54l-2.84-8.06l-4.6,3.86L250.55,421.54z M250.55,421.54"/>
	<path class="st7" d="M250.55,421.54l-2.84-8.06l-4.6,3.86L250.55,421.54z M250.55,421.54"/>
	<line class="st6" x1="217.37" y1="398.24" x2="204.42" y2="415.14"/>
	<path d="M199.55,421.49l7.25-4.52l-4.76-3.65L199.55,421.49z M199.55,421.49"/>
	<path class="st7" d="M199.55,421.49l7.25-4.52l-4.76-3.65L199.55,421.49z M199.55,421.49"/>
	<line class="st6" x1="205.29" y1="440" x2="237.14" y2="460.19"/>
	<path d="M243.89,464.48l-5.15-6.82l-3.21,5.07L243.89,464.48z M243.89,464.48"/>
	<path class="st7" d="M243.89,464.48l-5.15-6.82l-3.21,5.07L243.89,464.48z M243.89,464.48"/>
	<path class="st8" d="M173.88,506h35c4.14,0,7.5,3.81,7.5,8.5c0,4.69-3.36,8.5-7.5,8.5h-35c-4.14,0-7.5-3.81-7.5-8.5
		C166.38,509.81,169.74,506,173.88,506"/>
	<text transform="matrix(1 0 0 1 181.8828 517.5078)" class="st2 st3">blob</text>
	<path class="st5" d="M173.88,465h35c4.14,0,7.5,3.81,7.5,8.5c0,4.69-3.36,8.5-7.5,8.5h-35c-4.14,0-7.5-3.81-7.5-8.5
		C166.38,468.8,169.74,465,173.88,465"/>
	<text transform="matrix(1 0 0 1 181.8828 476.4922)" class="st2 st3">tree</text>
	<path class="st5" d="M173.88,422.5h35c4.14,0,7.5,3.81,7.5,8.5c0,4.69-3.36,8.5-7.5,8.5h-35c-4.14,0-7.5-3.81-7.5-8.5
		C166.38,426.3,169.74,422.5,173.88,422.5"/>
	<text transform="matrix(1 0 0 1 181.8828 433.9922)" class="st2 st3">tree</text>
	<path class="st8" d="M240.9,422.5h35c4.14,0,7.5,3.81,7.5,8.5c0,4.69-3.36,8.5-7.5,8.5h-35c-4.14,0-7.5-3.81-7.5-8.5
		C233.4,426.3,236.76,422.5,240.9,422.5"/>
	<text transform="matrix(1 0 0 1 248.8984 433.9922)" class="st2 st3">blob</text>
	<path class="st1" d="M379.54,343.74h43.75c5.18,0,9.38,3.81,9.38,8.5c0,4.69-4.2,8.5-9.38,8.5h-43.75c-5.18,0-9.38-3.81-9.38-8.5
		C370.16,347.55,374.36,343.74,379.54,343.74"/>
	<text transform="matrix(1 0 0 1 386.9141 355.2422)" class="st2 st3">commit</text>
	<path class="st5" d="M383.91,380.74h35c4.14,0,7.5,3.81,7.5,8.5s-3.36,8.5-7.5,8.5h-35c-4.14,0-7.5-3.81-7.5-8.5
		S379.77,380.74,383.91,380.74"/>
	<text transform="matrix(1 0 0 1 391.9141 392.2422)" class="st2 st3">tree</text>
	<line class="st6" x1="401.91" y1="361.24" x2="401.91" y2="371.34"/>
	<path d="M401.91,379.34l3-8h-6L401.91,379.34z M401.91,379.34"/>
	<path class="st7" d="M401.91,379.34l3-8h-6L401.91,379.34z M401.91,379.34"/>
	<line class="st6" x1="401.91" y1="398.24" x2="401.91" y2="414.34"/>
	<path d="M401.91,422.34l3-8h-6L401.91,422.34z M401.91,422.34"/>
	<path class="st7" d="M401.91,422.34l3-8h-6L401.91,422.34z M401.91,422.34"/>
	<path class="st8" d="M383.91,423.74h35c4.14,0,7.5,3.81,7.5,8.5c0,4.69-3.36,8.5-7.5,8.5h-35c-4.14,0-7.5-3.81-7.5-8.5
		C376.41,427.55,379.77,423.74,383.91,423.74"/>
	<text transform="matrix(1 0 0 1 391.9141 435.2422)" class="st2 st3">blob</text>
	<line class="st6" x1="305.17" y1="440" x2="278.45" y2="459.63"/>
	<path d="M272,464.37l8.22-2.32l-3.55-4.83L272,464.37z M272,464.37"/>
	<path class="st7" d="M272,464.37l8.22-2.32l-3.55-4.83L272,464.37z M272,464.37"/>
	<line class="st6" x1="384.57" y1="398.24" x2="342.96" y2="418.64"/>
	<path d="M335.78,422.16l8.5-0.83l-2.64-5.39L335.78,422.16z M335.78,422.16"/>
	<path class="st7" d="M335.78,422.16l8.5-0.83l-2.64-5.39L335.78,422.16z M335.78,422.16"/>
	<line class="st6" x1="191.88" y1="440" x2="191.88" y2="455.6"/>
	<path d="M191.88,463.6l3-8h-6L191.88,463.6z M191.88,463.6"/>
	<path class="st7" d="M191.88,463.6l3-8h-6L191.88,463.6z M191.88,463.6"/>
	<path class="st8" d="M240.9,465h35c4.14,0,7.5,3.81,7.5,8.5c0,4.69-3.36,8.5-7.5,8.5h-35c-4.14,0-7.5-3.81-7.5-8.5
		C233.4,468.8,236.76,465,240.9,465"/>
	<text transform="matrix(1 0 0 1 248.8984 476.4922)" class="st2 st3">blob</text>
	<line class="st6" x1="191.88" y1="482.5" x2="191.88" y2="496.6"/>
	<path d="M191.88,504.6l3-8h-6L191.88,504.6z M191.88,504.6"/>
	<path class="st7" d="M191.88,504.6l3-8h-6L191.88,504.6z M191.88,504.6"/>
	<line class="st6" x1="316.73" y1="482.5" x2="316.73" y2="496.6"/>
	<path d="M316.73,504.6l3-8h-6L316.73,504.6z M316.73,504.6"/>
	<path class="st7" d="M316.73,504.6l3-8h-6L316.73,504.6z M316.73,504.6"/>
	<line class="st6" x1="304.96" y1="398.24" x2="278.7" y2="417.2"/>
	<path d="M272.22,421.88l8.24-2.25l-3.51-4.86L272.22,421.88z M272.22,421.88"/>
	<path class="st7" d="M272.22,421.88l8.24-2.25l-3.51-4.86L272.22,421.88z M272.22,421.88"/>
	<path class="st9" d="M380.04,306.24h43.75c5.17,0,9.38,3.81,9.38,8.5c0,4.69-4.2,8.5-9.38,8.5h-43.75c-5.18,0-9.38-3.81-9.38-8.5
		C370.66,310.05,374.86,306.24,380.04,306.24"/>
	<path class="st10" d="M380.04,306.24h43.75c5.17,0,9.38,3.81,9.38,8.5s-4.2,8.5-9.38,8.5h-43.75c-5.18,0-9.38-3.81-9.38-8.5
		S374.86,306.24,380.04,306.24"/>
	<text transform="matrix(1 0 0 1 386.9141 317.2422)" class="st2 st3">branch</text>
	<path class="st9" d="M384.41,265.24h35c4.14,0,7.5,3.81,7.5,8.5c0,4.69-3.36,8.5-7.5,8.5h-35c-4.14,0-7.5-3.81-7.5-8.5
		C376.91,269.05,380.27,265.24,384.41,265.24"/>
	<g>
		<defs>
			<rect id="SVGID_3_" x="162" y="261" width="288" height="270"/>
		</defs>
		<clipPath id="SVGID_4_">
			<use xlink:href="#SVGID_3_"  style="overflow:visible;"/>
		</clipPath>
		<path class="st11" d="M384.41,265.24h35c4.14,0,7.5,3.81,7.5,8.5c0,4.69-3.36,8.5-7.5,8.5h-35c-4.14,0-7.5-3.81-7.5-8.5
			C376.91,269.05,380.27,265.24,384.41,265.24"/>
	</g>
	<text transform="matrix(1 0 0 1 391.9141 276.2344)" class="st2 st3">HEAD</text>
	<line class="st6" x1="401.91" y1="324.74" x2="401.91" y2="334.34"/>
	<path d="M401.91,342.34l3-8h-6L401.91,342.34z M401.91,342.34"/>
	<path class="st7" d="M401.91,342.34l3-8h-6L401.91,342.34z M401.91,342.34"/>
	<line class="st6" x1="401.91" y1="283.74" x2="401.91" y2="294.84"/>
	<path d="M401.91,302.84l3-8h-6L401.91,302.84z M401.91,302.84"/>
	<path class="st7" d="M401.91,302.84l3-8h-6L401.91,302.84z M401.91,302.84"/>
	<line class="st6" x1="370.66" y1="352.74" x2="357.88" y2="352.74"/>
	<path d="M349.88,352.74l8,3v-6L349.88,352.74z M349.88,352.74"/>
	<path class="st7" d="M349.88,352.74l8,3v-6L349.88,352.74z M349.88,352.74"/>
	<line class="st6" x1="285.48" y1="352.74" x2="267.82" y2="352.74"/>
	<path d="M259.82,352.74l8,3v-6L259.82,352.74z M259.82,352.74"/>
	<path class="st7" d="M259.82,352.74l8,3v-6L259.82,352.74z M259.82,352.74"/>
</g>
</svg>
