<?xml version="1.0" encoding="utf-8"?>
<!-- Generator: Adobe Illustrator 23.0.1, SVG Export Plug-In . SVG Version: 6.00 Build 0)  -->
<svg version="1.1" id="Layer_1" xmlns="http://www.w3.org/2000/svg" xmlns:xlink="http://www.w3.org/1999/xlink" x="0px" y="0px"
	 viewBox="0 0 612 792" style="enable-background:new 0 0 612 792;" xml:space="preserve">
<style type="text/css">
	.st0{clip-path:url(#SVGID_2_);fill:#FFFFFF;}
	.st1{fill:#DAF5DD;}
	.st2{font-family:'Inconsolata';}
	.st3{font-size:10px;}
	.st4{fill:#F6F4DE;}
	.st5{fill:#E6EDF6;}
	.st6{fill:none;stroke:#000000;stroke-linecap:round;stroke-linejoin:round;stroke-miterlimit:10;}
	.st7{fill:none;stroke:#000000;stroke-miterlimit:10;}
	.st8{fill:#F6EBEB;}
	.st9{fill:#F0F0F0;}
	.st10{fill:#898989;}
</style>
<g>
	<g>
		<defs>
			<rect id="SVGID_1_" x="153" y="243" width="306" height="306"/>
		</defs>
		<clipPath id="SVGID_2_">
			<use xlink:href="#SVGID_1_"  style="overflow:visible;"/>
		</clipPath>
		<path class="st0" d="M152.5,242.5h306v306h-306V242.5z M152.5,242.5"/>
	</g>
	<path class="st1" d="M314.18,331.5h43.75c5.17,0,9.38,3.81,9.38,8.5c0,4.69-4.2,8.5-9.38,8.5h-43.75c-5.18,0-9.38-3.81-9.38-8.5
		C304.81,335.31,309.01,331.5,314.18,331.5"/>
	<text transform="matrix(1 0 0 1 321.5625 343)" class="st2 st3">commit</text>
	<path class="st4" d="M320.75,289.5h30.63c3.62,0,6.56,3.81,6.56,8.5c0,4.69-2.94,8.5-6.56,8.5h-30.63c-3.62,0-6.56-3.81-6.56-8.5
		C314.18,293.31,317.13,289.5,320.75,289.5"/>
	<text transform="matrix(1 0 0 1 329.0625 301)" class="st2 st3">tag</text>
	<path class="st5" d="M318.56,378.5h35c4.14,0,7.5,3.81,7.5,8.5c0,4.69-3.36,8.5-7.5,8.5h-35c-4.14,0-7.5-3.81-7.5-8.5
		C311.06,382.31,314.42,378.5,318.56,378.5"/>
	<text transform="matrix(1 0 0 1 326.5625 390)" class="st2 st3">tree</text>
	<line class="st6" x1="336.56" y1="349" x2="336.56" y2="369.1"/>
	<path d="M336.56,377.1l3-8h-6L336.56,377.1z M336.56,377.1"/>
	<path class="st7" d="M336.56,377.1l3-8h-6L336.56,377.1z M336.56,377.1"/>
	<line class="st6" x1="336.56" y1="307" x2="336.56" y2="322.1"/>
	<path d="M336.56,330.1l3-8h-6L336.56,330.1z M336.56,330.1"/>
	<path class="st7" d="M336.56,330.1l3-8h-6L336.56,330.1z M336.56,330.1"/>
	<line class="st6" x1="336.56" y1="396" x2="336.56" y2="410.6"/>
	<path d="M336.56,418.6l3-8h-6L336.56,418.6z M336.56,418.6"/>
	<path class="st7" d="M336.56,418.6l3-8h-6L336.56,418.6z M336.56,418.6"/>
	<line class="st6" x1="336.56" y1="437.5" x2="336.56" y2="462.1"/>
	<path d="M336.56,470.1l3-8h-6L336.56,470.1z M336.56,470.1"/>
	<path class="st7" d="M336.56,470.1l3-8h-6L336.56,470.1z M336.56,470.1"/>
	<path class="st8" d="M318.56,518.5h35c4.14,0,7.5,3.81,7.5,8.5c0,4.69-3.36,8.5-7.5,8.5h-35c-4.14,0-7.5-3.81-7.5-8.5
		C311.06,522.31,314.42,518.5,318.56,518.5"/>
	<text transform="matrix(1 0 0 1 326.5625 530)" class="st2 st3">blob</text>
	<path class="st5" d="M318.56,471.5h35c4.14,0,7.5,3.81,7.5,8.5c0,4.69-3.36,8.5-7.5,8.5h-35c-4.14,0-7.5-3.81-7.5-8.5
		C311.06,475.31,314.42,471.5,318.56,471.5"/>
	<text transform="matrix(1 0 0 1 326.5625 483)" class="st2 st3">tree</text>
	<path class="st5" d="M318.56,420h35c4.14,0,7.5,3.81,7.5,8.5c0,4.69-3.36,8.5-7.5,8.5h-35c-4.14,0-7.5-3.81-7.5-8.5
		C311.06,423.81,314.42,420,318.56,420"/>
	<text transform="matrix(1 0 0 1 326.5625 431.5)" class="st2 st3">tree</text>
	<path class="st1" d="M206.12,331.5h43.75c5.18,0,9.38,3.81,9.38,8.5c0,4.69-4.2,8.5-9.38,8.5h-43.75c-5.18,0-9.38-3.81-9.38-8.5
		C196.74,335.31,200.94,331.5,206.12,331.5"/>
	<text transform="matrix(1 0 0 1 213.5 343)" class="st2 st3">commit</text>
	<path class="st5" d="M210.49,378.5h35c4.14,0,7.5,3.81,7.5,8.5c0,4.69-3.36,8.5-7.5,8.5h-35c-4.14,0-7.5-3.81-7.5-8.5
		C202.99,382.31,206.35,378.5,210.49,378.5"/>
	<text transform="matrix(1 0 0 1 218.5 390)" class="st2 st3">tree</text>
	<line class="st6" x1="228.49" y1="349" x2="228.49" y2="369.1"/>
	<path d="M228.49,377.1l3-8h-6L228.49,377.1z M228.49,377.1"/>
	<path class="st7" d="M228.49,377.1l3-8h-6L228.49,377.1z M228.49,377.1"/>
	<line class="st6" x1="236.94" y1="396" x2="254.3" y2="413.48"/>
	<path d="M259.94,419.15l-3.51-7.79l-4.26,4.23L259.94,419.15z M259.94,419.15"/>
	<path class="st7" d="M259.94,419.15l-3.51-7.79l-4.26,4.23L259.94,419.15z M259.94,419.15"/>
	<line class="st6" x1="219.32" y1="396" x2="200.14" y2="413.77"/>
	<path d="M194.27,419.21l7.91-3.24l-4.08-4.4L194.27,419.21z M194.27,419.21"/>
	<path class="st7" d="M194.27,419.21l7.91-3.24l-4.08-4.4L194.27,419.21z M194.27,419.21"/>
	<line class="st6" x1="197.91" y1="437.5" x2="247.04" y2="466.91"/>
	<path d="M253.9,471.02l-5.32-6.68l-3.08,5.15L253.9,471.02z M253.9,471.02"/>
	<path class="st7" d="M253.9,471.02l-5.32-6.68l-3.08,5.15L253.9,471.02z M253.9,471.02"/>
	<path class="st8" d="M165.71,518.5h35c4.14,0,7.5,3.81,7.5,8.5c0,4.69-3.36,8.5-7.5,8.5h-35c-4.14,0-7.5-3.81-7.5-8.5
		C158.21,522.31,161.57,518.5,165.71,518.5"/>
	<text transform="matrix(1 0 0 1 173.7109 530)" class="st2 st3">blob</text>
	<path class="st5" d="M165.71,471.5h35c4.14,0,7.5,3.81,7.5,8.5c0,4.69-3.36,8.5-7.5,8.5h-35c-4.14,0-7.5-3.81-7.5-8.5
		C158.21,475.31,161.57,471.5,165.71,471.5"/>
	<text transform="matrix(1 0 0 1 173.7109 483)" class="st2 st3">tree</text>
	<path class="st5" d="M165.71,420h35c4.14,0,7.5,3.81,7.5,8.5c0,4.69-3.36,8.5-7.5,8.5h-35c-4.14,0-7.5-3.81-7.5-8.5
		C158.21,423.81,161.57,420,165.71,420"/>
	<text transform="matrix(1 0 0 1 173.7109 431.5)" class="st2 st3">tree</text>
	<path class="st8" d="M251.73,420h35c4.14,0,7.5,3.81,7.5,8.5c0,4.69-3.36,8.5-7.5,8.5h-35c-4.14,0-7.5-3.81-7.5-8.5
		C244.23,423.81,247.59,420,251.73,420"/>
	<text transform="matrix(1 0 0 1 259.7266 431.5)" class="st2 st3">blob</text>
	<path class="st1" d="M403.71,331.5h43.75c5.18,0,9.38,3.81,9.38,8.5c0,4.69-4.2,8.5-9.38,8.5h-43.75c-5.18,0-9.38-3.81-9.38-8.5
		C394.34,335.31,398.54,331.5,403.71,331.5"/>
	<text transform="matrix(1 0 0 1 411.0859 343)" class="st2 st3">commit</text>
	<path class="st5" d="M408.09,378.5h35c4.14,0,7.5,3.81,7.5,8.5c0,4.69-3.36,8.5-7.5,8.5h-35c-4.14,0-7.5-3.81-7.5-8.5
		C400.59,382.31,403.95,378.5,408.09,378.5"/>
	<text transform="matrix(1 0 0 1 416.0859 390)" class="st2 st3">tree</text>
	<line class="st6" x1="426.09" y1="349" x2="426.09" y2="369.1"/>
	<path d="M426.09,377.1l3-8h-6L426.09,377.1z M426.09,377.1"/>
	<path class="st7" d="M426.09,377.1l3-8h-6L426.09,377.1z M426.09,377.1"/>
	<line class="st6" x1="426.09" y1="396" x2="426.09" y2="410.1"/>
	<path d="M426.09,418.1l3-8h-6L426.09,418.1z M426.09,418.1"/>
	<path class="st7" d="M426.09,418.1l3-8h-6L426.09,418.1z M426.09,418.1"/>
	<path class="st8" d="M408.09,419.5h35c4.14,0,7.5,3.81,7.5,8.5c0,4.69-3.36,8.5-7.5,8.5h-35c-4.14,0-7.5-3.81-7.5-8.5
		C400.59,423.31,403.95,419.5,408.09,419.5"/>
	<text transform="matrix(1 0 0 1 416.0859 431)" class="st2 st3">blob</text>
	<line class="st6" x1="325.53" y1="437.5" x2="288.6" y2="465.96"/>
	<path d="M282.26,470.84l8.17-2.51l-3.66-4.75L282.26,470.84z M282.26,470.84"/>
	<path class="st7" d="M282.26,470.84l8.17-2.51l-3.66-4.75L282.26,470.84z M282.26,470.84"/>
	<line class="st6" x1="407.84" y1="395.96" x2="363.79" y2="416.38"/>
	<path d="M356.53,419.74l8.52-0.64l-2.52-5.44L356.53,419.74z M356.53,419.74"/>
	<path class="st7" d="M356.53,419.74l8.52-0.64l-2.52-5.44L356.53,419.74z M356.53,419.74"/>
	<line class="st6" x1="183.71" y1="437.5" x2="183.71" y2="462.1"/>
	<path d="M183.71,470.1l3-8h-6L183.71,470.1z M183.71,470.1"/>
	<path class="st7" d="M183.71,470.1l3-8h-6L183.71,470.1z M183.71,470.1"/>
	<path class="st8" d="M251.73,471.5h35c4.14,0,7.5,3.81,7.5,8.5c0,4.69-3.36,8.5-7.5,8.5h-35c-4.14,0-7.5-3.81-7.5-8.5
		C244.23,475.31,247.59,471.5,251.73,471.5"/>
	<text transform="matrix(1 0 0 1 259.7266 483)" class="st2 st3">blob</text>
	<line class="st6" x1="183.71" y1="489" x2="183.71" y2="509.1"/>
	<path d="M183.71,517.1l3-8h-6L183.71,517.1z M183.71,517.1"/>
	<path class="st7" d="M183.71,517.1l3-8h-6L183.71,517.1z M183.71,517.1"/>
	<line class="st6" x1="336.56" y1="489" x2="336.56" y2="509.1"/>
	<path d="M336.56,517.1l3-8h-6L336.56,517.1z M336.56,517.1"/>
	<path class="st7" d="M336.56,517.1l3-8h-6L336.56,517.1z M336.56,517.1"/>
	<line class="st6" x1="322.87" y1="396" x2="291.83" y2="415.28"/>
	<path d="M285.03,419.5l8.38-1.67l-3.17-5.1L285.03,419.5z M285.03,419.5"/>
	<path class="st7" d="M285.03,419.5l8.38-1.67l-3.17-5.1L285.03,419.5z M285.03,419.5"/>
	<path class="st9" d="M400.59,289.5h50v17h-50V289.5z M400.59,289.5"/>
	<text transform="matrix(1 0 0 1 411.0859 301)" class="st10 st2 st3">branch</text>
	<path class="st9" d="M405.59,248.5h40v17h-40V248.5z M405.59,248.5"/>
	<text transform="matrix(1 0 0 1 416.0859 260)" class="st10 st2 st3">HEAD</text>
	<line class="st6" x1="426.09" y1="307" x2="426.09" y2="322.1"/>
	<path d="M426.09,330.1l3-8h-6L426.09,330.1z M426.09,330.1"/>
	<path class="st7" d="M426.09,330.1l3-8h-6L426.09,330.1z M426.09,330.1"/>
	<line class="st6" x1="426.09" y1="266" x2="426.09" y2="280.1"/>
	<path d="M426.09,288.1l3-8h-6L426.09,288.1z M426.09,288.1"/>
	<path class="st7" d="M426.09,288.1l3-8h-6L426.09,288.1z M426.09,288.1"/>
	<line class="st6" x1="394.84" y1="340.5" x2="377.71" y2="340.5"/>
	<path d="M369.71,340.5l8,3v-6L369.71,340.5z M369.71,340.5"/>
	<path class="st7" d="M369.71,340.5l8,3v-6L369.71,340.5z M369.71,340.5"/>
	<line class="st6" x1="305.31" y1="340.5" x2="269.64" y2="340.5"/>
	<path d="M261.64,340.5l8,3v-6L261.64,340.5z M261.64,340.5"/>
	<path class="st7" d="M261.64,340.5l8,3v-6L261.64,340.5z M261.64,340.5"/>
</g>
</svg>
