<?xml version="1.0" encoding="utf-8"?>
<!-- Generator: Adobe Illustrator 23.0.1, SVG Export Plug-In . SVG Version: 6.00 Build 0)  -->
<svg version="1.1" id="Layer_1" xmlns="http://www.w3.org/2000/svg" xmlns:xlink="http://www.w3.org/1999/xlink" x="0px" y="0px"
	 viewBox="0 0 612 792" style="enable-background:new 0 0 612 792;" xml:space="preserve">
<style type="text/css">
	.st0{clip-path:url(#SVGID_2_);fill:#FFFFFF;}
	.st1{fill:#DAF5DD;}
	.st2{font-family:'Inconsolata';}
	.st3{font-size:10px;}
	.st4{fill:#E6EDF6;}
	.st5{fill:none;stroke:#000000;stroke-linecap:round;stroke-linejoin:round;stroke-miterlimit:10;}
	.st6{fill:none;stroke:#000000;stroke-miterlimit:10;}
	.st7{fill:#F6EBEB;}
	.st8{fill:#F0F0F0;}
	.st9{fill:#898989;}
</style>
<g>
	<g>
		<defs>
			<rect id="SVGID_1_" x="243" y="261" width="126" height="270"/>
		</defs>
		<clipPath id="SVGID_2_">
			<use xlink:href="#SVGID_1_"  style="overflow:visible;"/>
		</clipPath>
		<path class="st0" d="M242.5,260.5h126v270h-126V260.5z M242.5,260.5"/>
	</g>
	<path class="st1" d="M281.8,340.07h43.75c5.17,0,9.38,3.81,9.38,8.5s-4.2,8.5-9.38,8.5H281.8c-5.18,0-9.38-3.81-9.38-8.5
		S276.63,340.07,281.8,340.07"/>
	<text transform="matrix(1 0 0 1 289.1797 351.5703)" class="st2 st3">commit</text>
	<path class="st4" d="M286.18,378.07h35c4.14,0,7.5,3.81,7.5,8.5c0,4.69-3.36,8.5-7.5,8.5h-35c-4.14,0-7.5-3.81-7.5-8.5
		C278.68,381.88,282.04,378.07,286.18,378.07"/>
	<text transform="matrix(1 0 0 1 294.1797 389.5782)" class="st2 st3">tree</text>
	<line class="st5" x1="304.18" y1="357.57" x2="304.18" y2="368.67"/>
	<path d="M304.18,376.67l3-8h-6L304.18,376.67z M304.18,376.67"/>
	<path class="st6" d="M304.18,376.67l3-8h-6L304.18,376.67z M304.18,376.67"/>
	<line class="st5" x1="311.44" y1="395.57" x2="326.8" y2="413.55"/>
	<path d="M332,419.63l-2.92-8.03l-4.56,3.9L332,419.63z M332,419.63"/>
	<path class="st6" d="M332,419.63l-2.92-8.03l-4.56,3.9L332,419.63z M332,419.63"/>
	<line class="st5" x1="297.5" y1="395.57" x2="283.56" y2="413.29"/>
	<path d="M278.62,419.58l7.3-4.43l-4.72-3.71L278.62,419.58z M278.62,419.58"/>
	<path class="st6" d="M278.62,419.58l7.3-4.43l-4.72-3.71L278.62,419.58z M278.62,419.58"/>
	<line class="st5" x1="284.7" y1="438.07" x2="318.1" y2="458.42"/>
	<path d="M324.93,462.59l-5.27-6.72l-3.12,5.12L324.93,462.59z M324.93,462.59"/>
	<path class="st6" d="M324.93,462.59l-5.27-6.72l-3.12,5.12L324.93,462.59z M324.93,462.59"/>
	<path class="st7" d="M252.76,510.07h35c4.14,0,7.5,3.81,7.5,8.5s-3.36,8.5-7.5,8.5h-35c-4.14,0-7.5-3.81-7.5-8.5
		S248.62,510.07,252.76,510.07"/>
	<text transform="matrix(1 0 0 1 260.7578 521.5703)" class="st2 st3">blob</text>
	<path class="st4" d="M252.76,463.07h35c4.14,0,7.5,3.81,7.5,8.5c0,4.69-3.36,8.5-7.5,8.5h-35c-4.14,0-7.5-3.81-7.5-8.5
		C245.26,466.88,248.62,463.07,252.76,463.07"/>
	<text transform="matrix(1 0 0 1 260.7578 474.5782)" class="st2 st3">tree</text>
	<path class="st4" d="M252.76,420.57h35c4.14,0,7.5,3.81,7.5,8.5s-3.36,8.5-7.5,8.5h-35c-4.14,0-7.5-3.81-7.5-8.5
		S248.62,420.57,252.76,420.57"/>
	<text transform="matrix(1 0 0 1 260.7578 432.0782)" class="st2 st3">tree</text>
	<path class="st7" d="M322.5,420.57h35c4.14,0,7.5,3.81,7.5,8.5s-3.36,8.5-7.5,8.5h-35c-4.14,0-7.5-3.81-7.5-8.5
		S318.36,420.57,322.5,420.57"/>
	<text transform="matrix(1 0 0 1 330.5 432.0782)" class="st2 st3">blob</text>
	<line class="st5" x1="270.76" y1="438.07" x2="270.76" y2="453.67"/>
	<path d="M270.76,461.67l3-8h-6L270.76,461.67z M270.76,461.67"/>
	<path class="st6" d="M270.76,461.67l3-8h-6L270.76,461.67z M270.76,461.67"/>
	<path class="st7" d="M322.5,463.07h35c4.14,0,7.5,3.81,7.5,8.5c0,4.69-3.36,8.5-7.5,8.5h-35c-4.14,0-7.5-3.81-7.5-8.5
		C315,466.88,318.36,463.07,322.5,463.07"/>
	<text transform="matrix(1 0 0 1 330.5 474.5782)" class="st2 st3">blob</text>
	<line class="st5" x1="270.76" y1="480.57" x2="270.76" y2="500.67"/>
	<path d="M270.76,508.67l3-8h-6L270.76,508.67z M270.76,508.67"/>
	<path class="st6" d="M270.76,508.67l3-8h-6L270.76,508.67z M270.76,508.67"/>
	<path class="st8" d="M278.68,301.57h50v17h-50V301.57z M278.68,301.57"/>
	<text transform="matrix(1 0 0 1 289.1797 313.0782)" class="st9 st2 st3">branch</text>
	<path class="st8" d="M283.68,266h40v17h-40V266z M283.68,266"/>
	<text transform="matrix(1 0 0 1 294.1797 277.5)" class="st9 st2 st3">HEAD</text>
	<line class="st5" x1="304.18" y1="319.07" x2="304.18" y2="330.67"/>
	<path d="M304.18,338.67l3-8h-6L304.18,338.67z M304.18,338.67"/>
	<path class="st6" d="M304.18,338.67l3-8h-6L304.18,338.67z M304.18,338.67"/>
	<line class="st5" x1="304.18" y1="283.5" x2="304.18" y2="292.17"/>
	<path d="M304.18,300.17l3-8h-6L304.18,300.17z M304.18,300.17"/>
	<path class="st6" d="M304.18,300.17l3-8h-6L304.18,300.17z M304.18,300.17"/>
</g>
</svg>
