<?xml version="1.0" encoding="utf-8"?>
<!-- Generator: Adobe Illustrator 23.0.1, SVG Export Plug-In . SVG Version: 6.00 Build 0)  -->
<svg version="1.1" id="Layer_1" xmlns="http://www.w3.org/2000/svg" xmlns:xlink="http://www.w3.org/1999/xlink" x="0px" y="0px"
	 viewBox="0 0 612 792" style="enable-background:new 0 0 612 792;" xml:space="preserve">
<style type="text/css">
	.st0{clip-path:url(#SVGID_2_);fill:#FFFFFF;}
	.st1{fill:none;stroke:#8F8F8F;stroke-linecap:round;stroke-linejoin:round;stroke-miterlimit:10;stroke-dasharray:4,4;}
	.st2{fill:#8F8F8F;}
	.st3{fill:none;stroke:#8F8F8F;stroke-miterlimit:10;}
	.st4{font-family:'BryantPro-Bold';}
	.st5{font-size:16px;}
	.st6{fill:none;stroke:#000000;stroke-linecap:round;stroke-linejoin:round;stroke-miterlimit:10;}
	.st7{fill:#E6EDF6;}
	.st8{font-family:'Inconsolata';}
	.st9{font-size:12px;}
	.st10{fill:#F6EBEB;}
	.st11{fill:none;stroke:#8F8F8F;stroke-linecap:round;stroke-linejoin:round;stroke-miterlimit:10;}
	.st12{fill:#5C7492;}
	.st13{fill:#FFFFFF;}
	.st14{font-family:'BryantPro-Medium';}
	.st15{fill:#934B48;}
</style>
<g>
	<g>
		<defs>
			<rect id="SVGID_1_" x="90" y="312" width="432" height="168"/>
		</defs>
		<clipPath id="SVGID_2_">
			<use xlink:href="#SVGID_1_"  style="overflow:visible;"/>
		</clipPath>
		<path class="st0" d="M89.5,311.5h432v168h-432V311.5z M89.5,311.5"/>
	</g>
	<line class="st1" x1="223.03" y1="353.25" x2="335.42" y2="353.25"/>
	<path class="st2" d="M343.42,353.25l-8-3v6L343.42,353.25z M343.42,353.25"/>
	<path class="st3" d="M343.42,353.25l-8-3v6L343.42,353.25z M343.42,353.25"/>
	<text transform="matrix(1 0 0 1 131.9141 331)" class="st4 st5">W</text>
	<text transform="matrix(1 0 0 1 146.4531 331)" class="st4 st5">orking Direc</text>
	<text transform="matrix(1 0 0 1 233.2578 331)" class="st4 st5">to</text>
	<text transform="matrix(1 0 0 1 247.8047 331)" class="st4 st5">ry</text>
	<text transform="matrix(1 0 0 1 369.8125 331)" class="st4 st5">Git Direc</text>
	<text transform="matrix(1 0 0 1 433.4453 331)" class="st4 st5">to</text>
	<text transform="matrix(1 0 0 1 447.9844 331)" class="st4 st5">ry</text>
	<line class="st6" x1="318.32" y1="327" x2="318.32" y2="471.75"/>
	<line class="st1" x1="262.82" y1="434.25" x2="336.42" y2="434.25"/>
	<path class="st2" d="M344.42,434.25l-8-3v6L344.42,434.25z M344.42,434.25"/>
	<path class="st3" d="M344.42,434.25l-8-3v6L344.42,434.25z M344.42,434.25"/>
	<path class="st7" d="M368.32,424.75h114.16c5.25,0,9.5,4.25,9.5,9.5l0,0c0,5.25-4.25,9.5-9.5,9.5H368.32c-5.25,0-9.5-4.25-9.5-9.5
		l0,0l0,0C358.82,429,363.07,424.75,368.32,424.75L368.32,424.75z M368.32,424.75"/>
	<text transform="matrix(1 0 0 1 386.8984 438.25)" class="st8 st9">tree : fe8971</text>
	<path class="st7" d="M368.32,343.75h114.16c5.25,0,9.5,4.25,9.5,9.5l0,0c0,5.25-4.25,9.5-9.5,9.5H368.32c-5.25,0-9.5-4.25-9.5-9.5
		l0,0l0,0C358.82,348,363.07,343.75,368.32,343.75L368.32,343.75z M368.32,343.75"/>
	<text transform="matrix(1 0 0 1 386.8984 357.25)" class="st8 st9">tree : 1a738d</text>
	<line class="st1" x1="263.5" y1="381.75" x2="337.1" y2="381.75"/>
	<path class="st2" d="M345.1,381.75l-8-3v6L345.1,381.75z M345.1,381.75"/>
	<path class="st3" d="M345.1,381.75l-8-3v6L345.1,381.75z M345.1,381.75"/>
	<line class="st1" x1="263.5" y1="408.75" x2="337.1" y2="408.75"/>
	<path class="st2" d="M345.1,408.75l-8-3v6L345.1,408.75z M345.1,408.75"/>
	<path class="st3" d="M345.1,408.75l-8-3v6L345.1,408.75z M345.1,408.75"/>
	<line class="st1" x1="301.87" y1="461.75" x2="337.1" y2="461.75"/>
	<path class="st2" d="M345.1,461.75l-8-3v6L345.1,461.75z M345.1,461.75"/>
	<path class="st3" d="M345.1,461.75l-8-3v6L345.1,461.75z M345.1,461.75"/>
	<path class="st10" d="M369,452.25h114.16c5.25,0,9.5,4.25,9.5,9.5l0,0c0,5.25-4.25,9.5-9.5,9.5H369c-5.25,0-9.5-4.25-9.5-9.5l0,0
		l0,0C359.5,456.5,363.75,452.25,369,452.25L369,452.25z M369,452.25"/>
	<text transform="matrix(1 0 0 1 387.5781 465.75)" class="st8 st9">blob : a0a60a</text>
	<path class="st10" d="M369,397.75h114.16c5.25,0,9.5,4.25,9.5,9.5l0,0c0,5.25-4.25,9.5-9.5,9.5H369c-5.25,0-9.5-4.25-9.5-9.5l0,0
		l0,0C359.5,402,363.75,397.75,369,397.75L369,397.75z M369,397.75"/>
	<text transform="matrix(1 0 0 1 387.5781 411.25)" class="st8 st9">blob : a906cb</text>
	<path class="st10" d="M369,370.75h114.16c5.25,0,9.5,4.25,9.5,9.5l0,0c0,5.25-4.25,9.5-9.5,9.5H369c-5.25,0-9.5-4.25-9.5-9.5l0,0
		l0,0C359.5,375,363.75,370.75,369,370.75L369,370.75z M369,370.75"/>
	<text transform="matrix(1 0 0 1 387.5781 384.25)" class="st8 st9">blob : a874b7</text>
	<polyline class="st11" points="108,353.75 108.08,380.75 116.1,380.75 	"/>
	<path class="st2" d="M124.1,380.75l-8-3v6L124.1,380.75z M124.1,380.75"/>
	<path class="st3" d="M124.1,380.75l-8-3v6L124.1,380.75z M124.1,380.75"/>
	<path class="st12" d="M103.5,344.25h116c2.76,0,5,2.24,5,5v9c0,2.76-2.24,5-5,5h-116c-2.76,0-5-2.24-5-5l0,0v-9
		C98.5,346.49,100.74,344.25,103.5,344.25L103.5,344.25z M103.5,344.25"/>
	<text transform="matrix(1 0 0 1 157.8047 356.25)" class="st13 st14 st9">./</text>
	<path class="st15" d="M139.5,371.25h116c2.76,0,5,2.24,5,5v9c0,2.76-2.24,5-5,5h-116c-2.76,0-5-2.24-5-5l0,0v-9
		C134.5,373.49,136.74,371.25,139.5,371.25L139.5,371.25z M139.5,371.25"/>
	<text transform="matrix(1 0 0 1 176.3828 383.25)" class="st13 st14 st9">Rakeﬁle</text>
	<path class="st15" d="M139.5,398.25h116c2.76,0,5,2.24,5,5v9c0,2.76-2.24,5-5,5h-116c-2.76,0-5-2.24-5-5l0,0v-9
		C134.5,400.49,136.74,398.25,139.5,398.25L139.5,398.25z M139.5,398.25"/>
	<text transform="matrix(1 0 0 1 172.8594 410.25)" class="st13 st14 st9">README</text>
	<path class="st12" d="M139.5,425.25h116c2.76,0,5,2.24,5,5v9c0,2.76-2.24,5-5,5h-116c-2.76,0-5-2.24-5-5l0,0v-9
		C134.5,427.49,136.74,425.25,139.5,425.25L139.5,425.25z M139.5,425.25"/>
	<text transform="matrix(1 0 0 1 189.0234 437.25)" class="st13 st14 st9">lib</text>
	<text transform="matrix(1 0 0 1 201.7109 437.25)" class="st13 st14 st9">/</text>
	<path class="st15" d="M175.5,452.25h116c2.76,0,5,2.24,5,5v9c0,2.76-2.24,5-5,5h-116c-2.76,0-5-2.24-5-5l0,0v-9
		C170.5,454.49,172.74,452.25,175.5,452.25L175.5,452.25z M175.5,452.25"/>
	<text transform="matrix(1 0 0 1 202.5234 464.25)" class="st13 st14 st9">simplegit</text>
	<text transform="matrix(1 0 0 1 251.1875 464.25)" class="st13 st14 st9">.rb</text>
	<polyline class="st11" points="108,425.75 108.08,461.75 152.1,461.75 	"/>
	<path class="st2" d="M160.1,461.75l-8-3v6L160.1,461.75z M160.1,461.75"/>
	<path class="st3" d="M160.1,461.75l-8-3v6L160.1,461.75z M160.1,461.75"/>
	<polyline class="st11" points="108,398.75 108.08,434.75 116.1,434.75 	"/>
	<path class="st2" d="M124.1,434.75l-8-3v6L124.1,434.75z M124.1,434.75"/>
	<path class="st3" d="M124.1,434.75l-8-3v6L124.1,434.75z M124.1,434.75"/>
	<polyline class="st11" points="108,371.75 108.08,407.75 116.1,407.75 	"/>
	<path class="st2" d="M124.1,407.75l-8-3v6L124.1,407.75z M124.1,407.75"/>
	<path class="st3" d="M124.1,407.75l-8-3v6L124.1,407.75z M124.1,407.75"/>
</g>
</svg>
