<?xml version="1.0" encoding="utf-8"?>
<!-- Generator: Adobe Illustrator 23.0.1, SVG Export Plug-In . SVG Version: 6.00 Build 0)  -->
<svg version="1.1" id="Layer_1" xmlns="http://www.w3.org/2000/svg" xmlns:xlink="http://www.w3.org/1999/xlink" x="0px" y="0px"
	 viewBox="0 0 612 792" style="enable-background:new 0 0 612 792;" xml:space="preserve">
<style type="text/css">
	.st0{clip-path:url(#SVGID_2_);fill:#FFFFFF;}
	.st1{fill:#F0F0F0;}
	.st2{fill:#898989;}
	.st3{font-family:'Inconsolata';}
	.st4{font-size:10px;}
	.st5{fill:#DAF5DD;}
	.st6{fill:none;stroke:#000000;stroke-linecap:round;stroke-linejoin:round;stroke-miterlimit:10;}
	.st7{fill:none;stroke:#000000;stroke-miterlimit:10;}
	.st8{fill:#82A571;}
</style>
<g>
	<g>
		<defs>
			<rect id="SVGID_1_" x="108" y="324" width="396" height="144"/>
		</defs>
		<clipPath id="SVGID_2_">
			<use xlink:href="#SVGID_1_"  style="overflow:visible;"/>
		</clipPath>
		<path class="st0" d="M107.5,323.5h396v144h-396V323.5z M107.5,323.5"/>
	</g>
	<path class="st1" d="M447.5,447.92h50v17h-50V447.92z M447.5,447.92"/>
	<text transform="matrix(1 0 0 1 458 459.4141)" class="st2 st3 st4">master</text>
	<path class="st5" d="M216.6,405.14h17.5c2.07,0,3.75,4.7,3.75,10.5s-1.68,10.5-3.75,10.5h-17.5c-2.07,0-3.75-4.7-3.75-10.5
		S214.53,405.14,216.6,405.14"/>
	<text transform="matrix(1 0 0 1 220.8516 418.6406)" class="st3 st4">C1</text>
	<path class="st5" d="M141.42,405.14h17.5c2.07,0,3.75,4.7,3.75,10.5s-1.68,10.5-3.75,10.5h-17.5c-2.07,0-3.75-4.7-3.75-10.5
		S139.35,405.14,141.42,405.14"/>
	<text transform="matrix(1 0 0 1 145.6719 418.6406)" class="st3 st4">C0</text>
	<line class="st6" x1="213.35" y1="416.14" x2="173.07" y2="416.14"/>
	<path d="M165.07,416.14l8,3v-6L165.07,416.14z M165.07,416.14"/>
	<path class="st7" d="M165.07,416.14l8,3v-6L165.07,416.14z M165.07,416.14"/>
	<path class="st8" d="M269.86,405.14h17.5c2.07,0,3.75,4.7,3.75,10.5s-1.68,10.5-3.75,10.5h-17.5c-2.07,0-3.75-4.7-3.75-10.5
		S267.79,405.14,269.86,405.14"/>
	<text transform="matrix(1 0 0 1 274.1094 418.6406)" class="st3 st4">C2</text>
	<line class="st6" x1="266.61" y1="416.14" x2="248.25" y2="416.14"/>
	<path d="M240.25,416.14l8,3v-6L240.25,416.14z M240.25,416.14"/>
	<path class="st7" d="M240.25,416.14l8,3v-6L240.25,416.14z M240.25,416.14"/>
	<path class="st5" d="M215.58,367.17h17.5c2.07,0,3.75,4.7,3.75,10.5c0,5.8-1.68,10.5-3.75,10.5h-17.5c-2.07,0-3.75-4.7-3.75-10.5
		C211.83,371.88,213.51,367.17,215.58,367.17"/>
	<text transform="matrix(1 0 0 1 219.8359 380.6719)" class="st3 st4">R1</text>
	<line class="st6" x1="213.02" y1="384.22" x2="171.29" y2="405.58"/>
	<path d="M164.17,409.23l8.49-0.98l-2.73-5.34L164.17,409.23z M164.17,409.23"/>
	<path class="st7" d="M164.17,409.23l8.49-0.98l-2.73-5.34L164.17,409.23z M164.17,409.23"/>
	<line class="st6" x1="267.87" y1="408.28" x2="244.18" y2="391.71"/>
	<path d="M237.63,387.12l4.84,7.04l3.44-4.92L237.63,387.12z M237.63,387.12"/>
	<path class="st7" d="M237.63,387.12l4.84,7.04l3.44-4.92L237.63,387.12z M237.63,387.12"/>
	<path class="st5" d="M289.08,367.17h17.5c2.07,0,3.75,4.7,3.75,10.5c0,5.8-1.68,10.5-3.75,10.5h-17.5c-2.07,0-3.75-4.7-3.75-10.5
		C285.33,371.88,287.01,367.17,289.08,367.17"/>
	<text transform="matrix(1 0 0 1 293.3281 380.6719)" class="st3 st4">R2</text>
	<line class="st6" x1="285.83" y1="378.17" x2="247.23" y2="378.17"/>
	<path d="M239.23,378.17l8,3v-6L239.23,378.17z M239.23,378.17"/>
	<path class="st7" d="M239.23,378.17l8,3v-6L239.23,378.17z M239.23,378.17"/>
	<path class="st5" d="M332.19,405.14h17.5c2.07,0,3.75,4.7,3.75,10.5s-1.68,10.5-3.75,10.5h-17.5c-2.07,0-3.75-4.7-3.75-10.5
		S330.12,405.14,332.19,405.14"/>
	<text transform="matrix(1 0 0 1 336.4453 418.6406)" class="st3 st4">C3</text>
	<line class="st6" x1="328.94" y1="416.14" x2="301.51" y2="416.14"/>
	<path d="M293.51,416.14l8,3v-6L293.51,416.14z M293.51,416.14"/>
	<path class="st7" d="M293.51,416.14l8,3v-6L293.51,416.14z M293.51,416.14"/>
	<path class="st8" d="M392.1,405.14h17.5c2.07,0,3.75,4.7,3.75,10.5s-1.68,10.5-3.75,10.5h-17.5c-2.07,0-3.75-4.7-3.75-10.5
		S390.03,405.14,392.1,405.14"/>
	<text transform="matrix(1 0 0 1 396.3516 418.6406)" class="st3 st4">C4</text>
	<line class="st6" x1="388.85" y1="416.14" x2="363.84" y2="416.14"/>
	<path d="M355.84,416.14l8,3v-6L355.84,416.14z M355.84,416.14"/>
	<path class="st7" d="M355.84,416.14l8,3v-6L355.84,416.14z M355.84,416.14"/>
	<line class="st6" x1="389.21" y1="411.67" x2="319.76" y2="386.07"/>
	<path d="M312.25,383.3l6.47,5.58l2.07-5.63L312.25,383.3z M312.25,383.3"/>
	<path class="st7" d="M312.25,383.3l6.47,5.58l2.07-5.63L312.25,383.3z M312.25,383.3"/>
	<path class="st5" d="M390.09,367.17h17.5c2.07,0,3.75,4.7,3.75,10.5c0,5.8-1.68,10.5-3.75,10.5h-17.5c-2.07,0-3.75-4.7-3.75-10.5
		C386.34,371.88,388.02,367.17,390.09,367.17"/>
	<text transform="matrix(1 0 0 1 394.3438 380.6719)" class="st3 st4">R3</text>
	<path class="st8" d="M463.75,405.14h17.5c2.07,0,3.75,4.7,3.75,10.5s-1.68,10.5-3.75,10.5h-17.5c-2.07,0-3.75-4.7-3.75-10.5
		S461.68,405.14,463.75,405.14"/>
	<text transform="matrix(1 0 0 1 468 418.6406)" class="st3 st4">C5</text>
	<line class="st6" x1="386.84" y1="378.17" x2="320.73" y2="378.17"/>
	<path d="M312.73,378.17l8,3v-6L312.73,378.17z M312.73,378.17"/>
	<path class="st7" d="M312.73,378.17l8,3v-6L312.73,378.17z M312.73,378.17"/>
	<line class="st6" x1="460.5" y1="416.14" x2="423.75" y2="416.14"/>
	<path d="M415.75,416.14l8,3v-6L415.75,416.14z M415.75,416.14"/>
	<path class="st7" d="M415.75,416.14l8,3v-6L415.75,416.14z M415.75,416.14"/>
	<line class="st6" x1="461.19" y1="410.05" x2="419.95" y2="388.79"/>
	<path d="M412.84,385.13l5.74,6.33l2.75-5.33L412.84,385.13z M412.84,385.13"/>
	<path class="st7" d="M412.84,385.13l5.74,6.33l2.75-5.33L412.84,385.13z M412.84,385.13"/>
	<line class="st6" x1="473" y1="448.42" x2="473" y2="436.54"/>
	<path d="M473,428.54l-3,8h6L473,428.54z M473,428.54"/>
	<path class="st7" d="M473,428.54l-3,8h6L473,428.54z M473,428.54"/>
	<path class="st1" d="M373.35,447.92h55v17h-55V447.92z M373.35,447.92"/>
	<text transform="matrix(1 0 0 1 383.8516 459.4141)" class="st2 st3 st4">master^</text>
	<line class="st6" x1="401.35" y1="448.42" x2="401.35" y2="436.54"/>
	<path d="M401.35,428.54l-3,8h6L401.35,428.54z M401.35,428.54"/>
	<path class="st7" d="M401.35,428.54l-3,8h6L401.35,428.54z M401.35,428.54"/>
	<path class="st1" d="M368.84,326.68h60v17h-60V326.68z M368.84,326.68"/>
	<text transform="matrix(1 0 0 1 379.3438 338.1797)" class="st2 st3 st4">master^2</text>
	<line class="st6" x1="399.34" y1="344.18" x2="399.34" y2="357.77"/>
	<path d="M399.34,365.77l3-8h-6L399.34,365.77z M399.34,365.77"/>
	<path class="st7" d="M399.34,365.77l3-8h-6L399.34,365.77z M399.34,365.77"/>
	<path class="st1" d="M195.35,447.92h60v17h-60V447.92z M195.35,447.92"/>
	<text transform="matrix(1 0 0 1 205.8516 459.4141)" class="st2 st3 st4">master~4</text>
	<line class="st6" x1="225.85" y1="448.42" x2="225.85" y2="436.54"/>
	<path d="M225.85,428.54l-3,8h6L225.85,428.54z M225.85,428.54"/>
	<path class="st7" d="M225.85,428.54l-3,8h6L225.85,428.54z M225.85,428.54"/>
	<path class="st1" d="M112.67,447.92h75v17h-75V447.92z M112.67,447.92"/>
	<text transform="matrix(1 0 0 1 123.1719 459.4141)" class="st2 st3 st4">master^^^^^</text>
	<line class="st6" x1="150.67" y1="448.42" x2="150.67" y2="436.54"/>
	<path d="M150.67,428.54l-3,8h6L150.67,428.54z M150.67,428.54"/>
	<path class="st7" d="M150.67,428.54l-3,8h6L150.67,428.54z M150.67,428.54"/>
	<path class="st1" d="M189.33,326.68h70v17h-70V326.68z M189.33,326.68"/>
	<text transform="matrix(1 0 0 1 199.8359 338.1797)" class="st2 st3 st4">master^^2^</text>
	<line class="st6" x1="224.83" y1="344.18" x2="224.83" y2="357.77"/>
	<path d="M224.83,365.77l3-8h-6L224.83,365.77z M224.83,365.77"/>
	<path class="st7" d="M224.83,365.77l3-8h-6L224.83,365.77z M224.83,365.77"/>
</g>
</svg>
